#format: frame checksums
#version: 2
#hash: MD5
#tb 0: 1/24
#media_type 0: video
#codec_id 0: rawvideo
#dimensions 0: 120x52
#sar 0: 544/545
#stream#, dts,        pts, duration,     size, hash
0,          0,          0,        1,     9360, 920bdc277a6a31c1daed9aca44b10caf
0,          1,          1,        1,     9360, f1c0b61fef593de57cb97be7fa846569
0,          2,          2,        1,     9360, 6ef32d9d4398355aebf6d3fb11d51d3f
0,          3,          3,        1,     9360, d38fd3ef1e5a92fc109b8dd9eb6dadeb
0,          4,          4,        1,     9360, 54cc0c8a25d2f14f32663837d5e646f1
0,          5,          5,        1,     9360, b4b6829726dc3decb8b80ba0c35bcf30
0,          6,          6,        1,     9360, fca3f941e60a2f0a4ce30d5e0efbec3c
0,          7,          7,        1,     9360, cda6e26b6c1039ff3d229b262c9210c3
0,          8,          8,        1,     9360, f0d69255e3a27a8b4ae8a4b7b210929d
0,          9,          9,        1,     9360, 12cb23dd4e32af9c3b35f943714e3fdd
0,         10,         10,        1,     9360, 082aaf3216124ddcecb422fe5c832e82
0,         11,         11,        1,     9360, ff37bb8cd6bd0412a3b3cb45db54afc9
0,         12,         12,        1,     9360, dfb9085441575732844b6c2f05d5f542
0,         13,         13,        1,     9360, 0017100feaaa9fc7eacd2447d50d7542
0,         14,         14,        1,     9360, 4e2f1b8c4e04c59934c2f58541e62613
0,         15,         15,        1,     9360, 27a44dfea7cd2d30e488194c34ab473c
0,         16,         16,        1,     9360, fc7b56bd95e990a33cf575d1ef820902
0,         17,         17,        1,     9360, fa2d1609e69714dffc410e65f3c8b755
0,         18,         18,        1,     9360, 705d7429f447cb13febe202d567795f2
0,         19,         19,        1,     9360, 234802ce86e868faaf2cd40a286846ea
0,         20,         20,        1,     9360, 2f0354b40d211d0a4ade4568bea4f85e
0,         21,         21,        1,     9360, e96af3b6c0cc931463ca77d6be0f1148
0,         22,         22,        1,     9360, 04a904d798361959971361401879c7e4
0,         23,         23,        1,     9360, 2f119642340df6d25362b5590ded46b7
0,         24,         24,        1,     9360, 5993fca2e60050706f857ac76e48f386
0,         25,         25,        1,     9360, 2ff3b5775fed3d527bfbbeea786787fe
0,         26,         26,        1,     9360, 42024dbe23d3fb5b0d8987ae1ce390a8
0,         27,         27,        1,     9360, d804204f0bd9db5f6a758e2c934d9e38
0,         28,         28,        1,     9360, e322712e6e34c58ec1a2ab5e2c1e3bfe
0,         29,         29,        1,     9360, 3975bd1a5f6a6b6260276777f9de611e
0,         30,         30,        1,     9360, 4388f0412efc6310706a7cdedc859ea9
0,         31,         31,        1,     9360, b4b9a11b0b86635267345a569640e8d4
0,         32,         32,        1,     9360, 31879c7b8d6b67a4209ffde786bb8cb4
0,         33,         33,        1,     9360, 4b6dc02d7c889fe4abd4e013b25f585a
0,         34,         34,        1,     9360, dc73aae82bd39a1220d1106c8d3e8252
0,         35,         35,        1,     9360, 54c7dfbd49f312806f6c1a89f7c2c36f
0,         36,         36,        1,     9360, 150abc64f8994d444a521ea90570443c
0,         37,         37,        1,     9360, d277cdc7dcadbe0016f2e950459e7ebf
0,         38,         38,        1,     9360, 2196bf338ead90ea54687b85c73c8229
0,         39,         39,        1,     9360, 53ce5da5365abc0bd3217dd98e7c465d
0,         40,         40,        1,     9360, 34ee9832aea55c0c4e6f4381c413c10e
0,         41,         41,        1,     9360, 1769c7b5849e4681119067a06ac29a4f
0,         42,         42,        1,     9360, 71f53df739ef283a5184c91ef4b158e8
0,         43,         43,        1,     9360, d2d394739e9a59c06f0354c16843cb63
0,         44,         44,        1,     9360, d8e458e92ae29344505a24a3059fc584
0,         45,         45,        1,     9360, 0f1b11a09911851b798df2ef76253a7f
0,         46,         46,        1,     9360, 5c4a9f22baecf4e749c0d5c65a4f1007
0,         47,         47,        1,     9360, 3e2b7e7262fdca08d9d1ef6070125c4b
